<svg id="图层_1" data-name="图层 1" xmlns="http://www.w3.org/2000/svg" viewBox="0 0 30 30"><defs><style>.cls-1{fill:#fff;}</style></defs><title>icon</title><path class="cls-1" d="M12.12,13.14a2.76,2.76,0,0,0,2.6-1.67,2.84,2.84,0,0,0-.56-3.06,2.68,2.68,0,0,0-3.06-.56,2.77,2.77,0,0,0-1.67,2.6,2.69,2.69,0,0,0,2.69,2.69Zm-.56-3.43a.85.85,0,0,1,.65-.28.91.91,0,0,1,.93.83,1.1,1.1,0,0,1-.83,1,1.09,1.09,0,0,1-1-.84,1.05,1.05,0,0,1,.27-.74Zm0,0"/><path class="cls-1" d="M26.14,6.64h-.93V4.79a1.85,1.85,0,0,0-1.85-1.86H6.64A1.85,1.85,0,0,0,4.79,4.79V6.64H3.86A1.87,1.87,0,0,0,2,8.5v13a1.87,1.87,0,0,0,1.86,1.86h.93v1.85a1.85,1.85,0,0,0,1.85,1.86H23.36a1.85,1.85,0,0,0,1.85-1.86V23.36h.93A1.87,1.87,0,0,0,28,21.5V8.5a1.87,1.87,0,0,0-1.86-1.86ZM4.79,21.5a.88.88,0,0,1-.93-.93V9.43a.88.88,0,0,1,.93-.93Zm18.57,2.79a.87.87,0,0,1-.93.92H7.57a.93.93,0,0,1-.93-.92V5.71a.87.87,0,0,1,.93-.92H22.43a.93.93,0,0,1,.93.92Zm2.78-3.72a.88.88,0,0,1-.93.93V8.5a.93.93,0,0,1,.93.93Zm0,0"/><path class="cls-1" d="M20,13.61l-3.9,3.9-1.95-2a.82.82,0,0,0-.65-.28.85.85,0,0,0-.65.28L8.22,20.2a.92.92,0,1,0,1.3,1.3l3.9-3.9,1.95,1.95a.83.83,0,0,0,.65.28.82.82,0,0,0,.65-.28l4.64-4.64a.88.88,0,0,0,0-1.3.9.9,0,0,0-1.3,0Zm0,0"/></svg>