<svg id="图层_1" data-name="图层 1" xmlns="http://www.w3.org/2000/svg" viewBox="0 0 30 30"><defs><style>.cls-1{fill:#fff;}</style></defs><title>icon</title><path class="cls-1" d="M7.2,2H22.8a2.3,2.3,0,0,1,2.31,2.31V25.69A2.3,2.3,0,0,1,22.8,28H7.2a2.32,2.32,0,0,1-2.31-2.31V4.31A2.32,2.32,0,0,1,7.2,2Zm.58,1.44a1.44,1.44,0,0,0-1,.43,1.46,1.46,0,0,0-.43,1V25.11a1.45,1.45,0,0,0,1.45,1.45H22.22a1.45,1.45,0,0,0,1.45-1.45V4.89a1.45,1.45,0,0,0-1.45-1.45ZM9.22,4.89H20.78a1.44,1.44,0,0,1,1.44,1.44v4.34a1.44,1.44,0,0,1-1.44,1.44H9.22a1.44,1.44,0,0,1-1.44-1.44V6.33A1.44,1.44,0,0,1,9.22,4.89Zm.87,1.2A.89.89,0,0,0,9.22,7V10a.89.89,0,0,0,.87.87h9.82a.89.89,0,0,0,.87-.87V7a.89.89,0,0,0-.87-.87Zm-.87,7.47a1.16,1.16,0,1,1-1.15,1.15,1.15,1.15,0,0,1,1.15-1.15Zm0,4.33a1.15,1.15,0,0,1,1,.58,1.13,1.13,0,0,1,0,1.15,1.15,1.15,0,1,1-1-1.73Zm0,4.33a1.16,1.16,0,1,1,0,2.31,1.16,1.16,0,0,1,0-2.31ZM15,13.56a1.16,1.16,0,1,1-1.16,1.15A1.15,1.15,0,0,1,15,13.56Zm0,4.33a1.16,1.16,0,0,1,1,.58,1.13,1.13,0,0,1,0,1.15,1.16,1.16,0,1,1-1-1.73Zm0,4.33a1.16,1.16,0,1,1-1.16,1.16A1.16,1.16,0,0,1,15,22.22Zm5.78-8.66a1.16,1.16,0,0,1,0,2.31,1.16,1.16,0,1,1,0-2.31Zm0,4.33a1.16,1.16,0,0,1,1,.58,1.18,1.18,0,0,1,0,1.15,1.16,1.16,0,1,1-1-1.73Zm0,4.33a1.16,1.16,0,1,1-1.16,1.16,1.15,1.15,0,0,1,1.16-1.16Zm0,0"/></svg>