<svg id="图层_1" data-name="图层 1" xmlns="http://www.w3.org/2000/svg" viewBox="0 0 30 30"><defs><style>.cls-1{fill:#fff;}</style></defs><title>icon</title><path class="cls-1" d="M17.75,4.23a1.12,1.12,0,1,1,0-2.23h6.49A3.76,3.76,0,0,1,28,5.76v6.72a1.11,1.11,0,0,1-.56,1,1.1,1.1,0,0,1-1.11,0,1.11,1.11,0,0,1-.56-1V5.76a1.52,1.52,0,0,0-1.53-1.53Zm8,13.43a1.12,1.12,0,0,1,2.23,0v6.59A3.75,3.75,0,0,1,24.24,28h-6.6a1.12,1.12,0,1,1,0-2.23h6.6a1.52,1.52,0,0,0,1.53-1.53V17.66ZM12.33,25.77a1.11,1.11,0,0,1,1,.56,1.15,1.15,0,0,1,0,1.11,1.11,1.11,0,0,1-1,.56H5.76A3.76,3.76,0,0,1,2,24.24v-6.6a1.12,1.12,0,0,1,2.23,0v6.6a1.52,1.52,0,0,0,1.53,1.53ZM4.23,12.4A1.12,1.12,0,0,1,2,12.4V5.76A3.76,3.76,0,0,1,5.76,2h6.58a1.12,1.12,0,0,1,0,2.23H5.76A1.52,1.52,0,0,0,4.23,5.76Zm17.08,3.34H8.68a1.12,1.12,0,0,1,0-2.23H21.31a1.12,1.12,0,1,1,0,2.23Zm0,0"/></svg>