<svg id="图层_1" data-name="图层 1" xmlns="http://www.w3.org/2000/svg" viewBox="0 0 30 30"><defs><style>.cls-1{fill:#fff;}</style></defs><title>icon</title><path class="cls-1" d="M28.5,14.89,16.15,2.79s-.46-.43-.71-.43-.78.43-.78.43L1.53,15.14a1.29,1.29,0,0,0-.53.92,1.21,1.21,0,0,0,1.22,1.12H4.36V25.3a2.6,2.6,0,0,0,2.48,2.32l11.61,0c1.22,0,1.7-1.08,1.7-2.43V18.36a2.15,2.15,0,0,0-2.16-2H11.72a1,1,0,0,0-1,1v5.52a.62.62,0,0,0,.73.67c.53,0,.64-.44.64-1V18.22c0-.44.37-.51.81-.51h5a.82.82,0,0,1,.81.81v6.83a.83.83,0,0,1-.81.82H8.82c-3.09.16-2.86-1-2.88-2.13l0-7.45c0-.63-.91-.86-1.93-.85l-.83-.05L15.41,3.94,27.09,15.67h-.73c-.64,0-1.65.39-1.65,1V25.3c0,.64-.24.78-1,.81H22.48c-.63,0-1,.27-1,.64,0,.71.37.85,1,.85h2.23c1.15-.07,1.45-.69,1.44-1.79V17h1.63A1.23,1.23,0,0,0,29,16a1.21,1.21,0,0,0-.5-1.07Zm0,0"/></svg>