<svg id="图层_1" data-name="图层 1" xmlns="http://www.w3.org/2000/svg" viewBox="0 0 30 30"><defs><style>.cls-1{fill:#fff;}</style></defs><title>icon</title><path class="cls-1" d="M11.45,2.62H4.19A2.19,2.19,0,0,0,2,4.81v7.26a2.18,2.18,0,0,0,2.19,2.18h7.26a2.18,2.18,0,0,0,2.19-2.18V4.81A2.19,2.19,0,0,0,11.45,2.62Zm.6,9.44a.6.6,0,0,1-.6.6H4.19a.6.6,0,0,1-.6-.6V4.81a.6.6,0,0,1,.6-.61h7.26a.6.6,0,0,1,.6.61Z"/><path class="cls-1" d="M21.57,14.87a2.47,2.47,0,0,1-1.75-.73l-4-4a2.46,2.46,0,0,1,0-3.5l4-4a2.49,2.49,0,0,1,3.5,0l4,4a2.49,2.49,0,0,1,0,3.5l-4,4a2.44,2.44,0,0,1-1.75.73Z"/><path class="cls-1" d="M20.93,3.84l-4,4a.88.88,0,0,0,0,1.25l4,4a.89.89,0,0,0,1.26,0l4-4a.86.86,0,0,0,0-1.25l-4-4a.9.9,0,0,0-1.26,0Z"/><path class="cls-1" d="M25.19,16.36H17.93a2.18,2.18,0,0,0-2.18,2.19v7.26A2.18,2.18,0,0,0,17.93,28h7.26a2.19,2.19,0,0,0,2.19-2.19V18.55A2.19,2.19,0,0,0,25.19,16.36Zm.61,9.45a.6.6,0,0,1-.61.6H17.93a.6.6,0,0,1-.6-.6V18.55a.6.6,0,0,1,.6-.6h7.26a.6.6,0,0,1,.61.6Z"/><path class="cls-1" d="M11.45,16.36H4.19A2.19,2.19,0,0,0,2,18.55v7.26A2.19,2.19,0,0,0,4.19,28h7.26a2.19,2.19,0,0,0,2.19-2.19V18.55A2.19,2.19,0,0,0,11.45,16.36Zm.6,9.45a.6.6,0,0,1-.6.6H4.19a.6.6,0,0,1-.6-.6V18.55a.6.6,0,0,1,.6-.6h7.26a.6.6,0,0,1,.6.6Z"/></svg>