<svg id="图层_1" data-name="图层 1" xmlns="http://www.w3.org/2000/svg" viewBox="0 0 30 30"><defs><style>.cls-1{fill:#fff;}.cls-2{fill:none;}</style></defs><title>icon</title><path class="cls-1" d="M7.77,9.22a5.77,5.77,0,1,0,5.77-5.77A5.77,5.77,0,0,0,7.77,9.22Zm0,0"/><path class="cls-1" d="M16.91,17.2a19.3,19.3,0,0,0-3.37-.29C7.19,16.91,2,20.19,2,26.54H17.1l-2.88-4.72Zm0,0"/><rect class="cls-2" x="2" y="3.43" width="26" height="23.14"/><path class="cls-1" d="M25.09,16.91H19.31l-2.88,4.82,2.88,4.81h5.78L28,21.73ZM22.2,23.65a1.93,1.93,0,1,1,1.92-1.92,1.93,1.93,0,0,1-1.92,1.92Zm0,0"/></svg>