<svg id="图层_1" data-name="图层 1" xmlns="http://www.w3.org/2000/svg" viewBox="0 0 30 30"><defs><style>.cls-1{fill:#fff;}</style></defs><title>icon</title><path class="cls-1" d="M27.66,17.58c-.12.73-.57,1.24-1.13,1.24h-.11A3.4,3.4,0,0,0,23,22.24a3.81,3.81,0,0,0,.29,1.29,1.54,1.54,0,0,1-.51,1.85h-.06l-3.27,1.85h-.06a2,2,0,0,1-.62.12,1.91,1.91,0,0,1-1.24-.51c-.4-.45-1.69-1.63-2.71-1.63s-2.31,1.18-2.7,1.57a1.59,1.59,0,0,1-1.24.51,2.22,2.22,0,0,1-.62-.11h-.06l-3.16-1.8H7a1.57,1.57,0,0,1-.5-1.85,3.92,3.92,0,0,0,.28-1.29,3.44,3.44,0,0,0-3.38-3.43c-.51,0-1-.44-1.13-1.23A17.83,17.83,0,0,1,2,15a17.85,17.85,0,0,1,.28-2.59c.12-.73.57-1.23,1.13-1.23h.11A3.39,3.39,0,0,0,6.9,7.76a3.92,3.92,0,0,0-.28-1.29,1.38,1.38,0,0,1,.51-1.8h.06l3.38-1.85h.06a.7.7,0,0,1,.51-.17,1.75,1.75,0,0,1,1.24.51A4.85,4.85,0,0,0,15,4.67a4.88,4.88,0,0,0,2.65-1.45,1.52,1.52,0,0,1,1.18-.51,2.22,2.22,0,0,1,.62.11h.06l3.27,1.8h.06a1.58,1.58,0,0,1,.51,1.85,3.92,3.92,0,0,0-.28,1.29,3.44,3.44,0,0,0,3.38,3.43h.11c.51,0,1,.44,1.13,1.23A17.83,17.83,0,0,1,28,15a25.46,25.46,0,0,1-.34,2.58Zm-1.72-4.81c-.05-.16-.05-.21-.11-.26a4.28,4.28,0,0,1-4.26-4.3,4,4,0,0,1,.37-1.64.51.51,0,0,0-.1-.48l-3-1.64H18.7a.42.42,0,0,0-.37.15c-.16.16-1.71,1.76-3.3,1.76s-3.14-1.59-3.3-1.76a.37.37,0,0,0-.37-.21H11.2L8.11,6.09A.5.5,0,0,0,8,6.57a4.64,4.64,0,0,1,.38,1.64A4.31,4.31,0,0,1,4.12,12.5c-.06.05-.06.16-.11.27A16.67,16.67,0,0,0,3.8,15,16.7,16.7,0,0,0,4,17.22c0,.16,0,.21.11.26a4.28,4.28,0,0,1,4.26,4.3A4.64,4.64,0,0,1,8,23.42a.51.51,0,0,0,.11.48L11,25.54h.16a.4.4,0,0,0,.37-.16c0-.05,1.7-1.85,3.35-1.85s3.19,1.7,3.35,1.86a.61.61,0,0,0,.37.15h.16l3-1.69a.51.51,0,0,0,.11-.48,4.39,4.39,0,0,1-.37-1.64,4.31,4.31,0,0,1,4.26-4.3c.05-.05.05-.15.11-.26a16.7,16.7,0,0,0,.21-2.23,16.56,16.56,0,0,0-.21-2.17ZM15,20.21A5.21,5.21,0,1,1,20.2,15,5.24,5.24,0,0,1,15,20.21Zm0-8.79A3.6,3.6,0,0,0,11.37,15a3.6,3.6,0,0,0,7.19,0A3.6,3.6,0,0,0,15,11.42Zm0,0"/></svg>