<svg id="图层_1" data-name="图层 1" xmlns="http://www.w3.org/2000/svg" viewBox="0 0 30 30"><defs><style>.cls-1{fill:#fff;}</style></defs><title>icon</title><path class="cls-1" d="M26.87,19.88h-1.3V17.93c0-2.6-1.3-4.56-3.9-4.56H15.81V11.1h2.11A1.11,1.11,0,0,0,19.06,10V4.76a1.11,1.11,0,0,0-1.14-1.14H11.26a1.11,1.11,0,0,0-1.14,1.14v5a1.11,1.11,0,0,0,1.14,1.13h2.11v2.44H7.85c-2.6,0-3.41,2.11-3.41,4.55v1.95H3.14A1.11,1.11,0,0,0,2,21v4.23a1.11,1.11,0,0,0,1.14,1.13H7.36A1.11,1.11,0,0,0,8.5,25.24V21a1.11,1.11,0,0,0-1.14-1.13H6.06v-2.6S5.9,15,8.82,15h4.56v4.88h-1.3A1.11,1.11,0,0,0,10.94,21v4.23a1.11,1.11,0,0,0,1.14,1.14h5a1.11,1.11,0,0,0,1.14-1.14V21a1.11,1.11,0,0,0-1.14-1.13h-1.3V15h5.37c2.11,0,2.7,1,2.76,2.28v2.6h-1.3A1.11,1.11,0,0,0,21.5,21v4.23a1.11,1.11,0,0,0,1.14,1.14h4.22A1.11,1.11,0,0,0,28,25.24V21a1.2,1.2,0,0,0-1.13-1.13M11.75,9.31V5.41h5.69v3.9H11.75"/></svg>