<svg id="图层_1" data-name="图层 1" xmlns="http://www.w3.org/2000/svg" viewBox="0 0 30 30"><defs><style>.cls-1{fill:#fff;}.cls-2{fill:none;}</style></defs><title>icon</title><path class="cls-1" d="M28,22.74a4.9,4.9,0,0,0-1.74-3.54l-8.08-6.78A8.05,8.05,0,0,0,16,4.55a8.23,8.23,0,0,0-4.26-2.23,8.37,8.37,0,0,0-4.67.45.84.84,0,0,0-.49.59.81.81,0,0,0,.23.74l2.8,2.77a2,2,0,0,1,0,2.82l0,0a2.1,2.1,0,0,1-2.92,0L3.92,7a.78.78,0,0,0-.73-.21.82.82,0,0,0-.59.48A8.06,8.06,0,0,0,4.4,16a8.23,8.23,0,0,0,5.82,2.38,8.4,8.4,0,0,0,2.17-.29l6.89,8a4.84,4.84,0,0,0,3.56,1.71H23A4.94,4.94,0,0,0,28,22.74ZM5.55,14.89A6.38,6.38,0,0,1,3.74,9.05l1.85,1.82a3.71,3.71,0,0,0,5.2,0,3.56,3.56,0,0,0,1.08-2.55,3.62,3.62,0,0,0-1-2.57l0,0L9,3.91A6.68,6.68,0,0,1,14.89,5.7a6.43,6.43,0,0,1,0,9.19,6.7,6.7,0,0,1-9.34,0ZM25.4,25.23A3.35,3.35,0,0,1,20.5,25L14,17.51A8,8,0,0,0,16,16a8.09,8.09,0,0,0,1.5-2l7.66,6.44a3.23,3.23,0,0,1,.2,4.78Zm0,0"/><rect class="cls-2" x="2" y="2.18" width="26" height="25.65"/><circle class="cls-1" cx="23.23" cy="23.14" r="1"/></svg>