<svg id="图层_1" data-name="图层 1" xmlns="http://www.w3.org/2000/svg" viewBox="0 0 30 30"><defs><style>.cls-1{fill:#fff;}</style></defs><title>icon</title><path class="cls-1" d="M7.63,24.76a10.22,10.22,0,0,1,5.78-9.2,8,8,0,0,0,8.81,0A10.19,10.19,0,0,1,28,24.76c0,4.23-20.37,4.29-20.37,0Zm10.17-9A6.85,6.85,0,1,1,24.65,8.9a6.83,6.83,0,0,1-6.85,6.83Zm-5-.61a5.55,5.55,0,0,1-2,.36,5.65,5.65,0,0,1,0-11.3,4.1,4.1,0,0,1,.49,0A8,8,0,0,0,12.8,15.12ZM10.58,16.3a11.43,11.43,0,0,0-4.16,8.81,1.77,1.77,0,0,0,.07.46C3.92,25.16,2,24.35,2,23.12a8.86,8.86,0,0,1,5-8,6.91,6.91,0,0,0,3.58,1.15Zm0,0"/></svg>