<svg id="图层_1" data-name="图层 1" xmlns="http://www.w3.org/2000/svg" viewBox="0 0 30 30"><defs><style>.cls-1{fill:none;}.cls-2{fill:#fff;}</style></defs><title>icon</title><rect class="cls-1" x="2" y="2.06" width="26" height="25.88"/><path class="cls-2" d="M15,2a11.24,11.24,0,0,1,7.84,3.12,10.5,10.5,0,0,1,3.26,7.57,10,10,0,0,1-.32,2.55,10.45,10.45,0,0,1-1,2.39,38.52,38.52,0,0,1-5.6,6.62l-3.66,3.52a.81.81,0,0,1-1.14,0l-3.67-3.52A37.15,37.15,0,0,1,5.15,17.6a10.36,10.36,0,0,1,2-12.48A11.24,11.24,0,0,1,15,2ZM10,12.82a4.93,4.93,0,0,0,8.43,3.48,4.92,4.92,0,0,0,0-7A4.94,4.94,0,0,0,10,12.82Zm2.61,2.32a3.26,3.26,0,0,1,0-4.64,3.27,3.27,0,0,1,4.65,0,3.29,3.29,0,0,1,1,2.36,3.28,3.28,0,0,1-5.61,2.28Zm0,0"/></svg>